<svg width="140" height="140" viewBox="0 0 140 140" fill="none" xmlns="http://www.w3.org/2000/svg">
<g clip-path="url(#clip0)">
<path d="M139.988 69.9948C139.988 89.3287 140.637 111.844 126.246 126.284C111.856 140.723 89.3282 139.989 69.9943 139.989C50.6603 139.989 28.1448 140.637 13.7055 126.247C-0.733805 111.856 0.000396554 89.3287 0.000396554 69.9948C0.000396554 50.6608 -0.635912 28.1453 13.7544 13.706C28.1448 -0.733317 50.6725 0.000884836 69.9943 0.000884836C89.316 0.000884836 111.844 -0.635423 126.283 13.7549C140.722 28.1453 139.988 50.673 139.988 69.9948Z" fill="#12262B"/>
<path d="M77.8862 33.4062H33.1121C29.1518 33.4062 25.9414 36.6167 25.9414 40.577C25.9414 44.5372 29.1518 47.7477 33.1121 47.7477H77.8862C81.8464 47.7477 85.0569 44.5372 85.0569 40.577C85.0569 36.6167 81.8464 33.4062 77.8862 33.4062Z" fill="white"/>
<path d="M92.5463 62.8232H47.7723C43.812 62.8232 40.6016 66.0337 40.6016 69.9939C40.6016 73.9542 43.812 77.1646 47.7723 77.1646H92.5463C96.5066 77.1646 99.717 73.9542 99.717 69.9939C99.717 66.0337 96.5066 62.8232 92.5463 62.8232Z" fill="white"/>
<path d="M77.8874 92.2522H62.4324C58.4722 92.2522 55.2617 95.4626 55.2617 99.4229C55.2617 103.383 58.4722 106.594 62.4324 106.594H77.8874C81.8476 106.594 85.0581 103.383 85.0581 99.4229C85.0581 95.4626 81.8476 92.2522 77.8874 92.2522Z" fill="white"/>
<path d="M114.058 40.577C114.058 36.6167 110.848 33.4062 106.887 33.4062C102.927 33.4062 99.7168 36.6167 99.7168 40.577C99.7168 44.5372 102.927 47.7477 106.887 47.7477C110.848 47.7477 114.058 44.5372 114.058 40.577Z" fill="white"/>
</g>
<defs>
<clipPath id="clip0">
<rect width="140" height="140" fill="white"/>
</clipPath>
</defs>
</svg>
